{
  "accessors": [
    {
      "bufferView": 2,
      "componentType": 5126,
      "count": 36119,
      "max": [
        0.6963499784469604,
        0.9301310181617737,
        1.8356399536132813
      ],
      "min": [
        -0.6963499784469604,
        -0.9510369896888733,
        0.00029399999766610563
      ],
      "type": "VEC3"
    },
    {
      "bufferView": 2,
      "byteOffset": 433428,
      "componentType": 5126,
      "count": 36119,
      "max": [
        1.0,
        1.0,
        1.0
      ],
      "min": [
        -1.0,
        -1.0,
        -1.0
      ],
      "type": "VEC3"
    },
    {
      "bufferView": 1,
      "componentType": 5126,
      "count": 36119,
      "max": [
        0.9987940192222595,
        0.9986019730567932
      ],
      "min": [
        0.00120599998626858,
        0.00120599998626858
      ],
      "type": "VEC2"
    },
    {
      "bufferView": 0,
      "componentType": 5125,
      "count": 147396,
      "type": "SCALAR"
    },
    {
      "bufferView": 2,
      "byteOffset": 866856,
      "componentType": 5126,
      "count": 10,
      "max": [
        0.28629299998283386,
        0.24557599425315857,
        0.5207909941673279
      ],
      "min": [
        -0.28629299998283386,
        -0.24557599425315857,
        0.3309600055217743
      ],
      "type": "VEC3"
    },
    {
      "bufferView": 0,
      "byteOffset": 589584,
      "componentType": 5125,
      "count": 12,
      "type": "SCALAR"
    },
    {
      "bufferView": 2,
      "byteOffset": 866976,
      "componentType": 5126,
      "count": 3517,
      "max": [
        0.6886730194091797,
        0.259535014629364,
        1.0645109415054321
      ],
      "min": [
        -0.6886730194091797,
        -0.10080300271511078,
        0.8824459910392761
      ],
      "type": "VEC3"
    },
    {
      "bufferView": 2,
      "byteOffset": 909180,
      "componentType": 5126,
      "count": 3517,
      "max": [
        0.999633252620697,
        0.998557984828949,
        0.9997119307518005
      ],
      "min": [
        -0.9996189475059509,
        -0.998557984828949,
        -0.9997119307518005
      ],
      "type": "VEC3"
    },
    {
      "bufferView": 1,
      "byteOffset": 288952,
      "componentType": 5126,
      "count": 3517,
      "max": [
        0.5172529816627502,
        0.4647180140018463
      ],
      "min": [
        0.41970598697662354,
        0.3671720027923584
      ],
      "type": "VEC2"
    },
    {
      "bufferView": 0,
      "byteOffset": 589632,
      "componentType": 5125,
      "count": 18000,
      "type": "SCALAR"
    },
    {
      "bufferView": 2,
      "byteOffset": 951384,
      "componentType": 5126,
      "count": 65,
      "max": [
        0.07563699781894684,
        0.9088889956474304,
        1.492941975593567
      ],
      "min": [
        -0.07563699781894684,
        0.8022239804267883,
        1.4048160314559937
      ],
      "type": "VEC3"
    },
    {
      "bufferView": 2,
      "byteOffset": 952164,
      "componentType": 5126,
      "count": 65,
      "max": [
        0.5091066360473633,
        0.9690923690795898,
        0.9680669903755188
      ],
      "min": [
        -0.5091066360473633,
        0.2506914436817169,
        -0.34529751539230347
      ],
      "type": "VEC3"
    },
    {
      "bufferView": 1,
      "byteOffset": 317088,
      "componentType": 5126,
      "count": 65,
      "max": [
        0.8351839780807495,
        0.7380819916725159
      ],
      "min": [
        0.7573729753494263,
        0.2272000014781952
      ],
      "type": "VEC2"
    },
    {
      "bufferView": 0,
      "byteOffset": 661632,
      "componentType": 5125,
      "count": 204,
      "type": "SCALAR"
    }
  ],
  "asset": {
    "extras": {
      "author": "Eddie Roach (https://sketchfab.com/eddie.roach)",
      "license": "CC-BY-4.0 (http://creativecommons.org/licenses/by/4.0/)",
      "source": "https://sketchfab.com/3d-models/droideka-low-poly-version-38a869298c0d44b0a504a07ab5e13dec",
      "title": "Droideka Low Poly Version"
    },
    "generator": "Sketchfab-12.0.1",
    "version": "2.0"
  },
  "bufferViews": [
    {
      "buffer": 0,
      "byteLength": 662448,
      "name": "floatBufferViews",
      "target": 34963
    },
    {
      "buffer": 0,
      "byteLength": 317608,
      "byteOffset": 662448,
      "byteStride": 8,
      "name": "floatBufferViews",
      "target": 34962
    },
    {
      "buffer": 0,
      "byteLength": 952944,
      "byteOffset": 980056,
      "byteStride": 12,
      "name": "floatBufferViews",
      "target": 34962
    }
  ],
  "buffers": [
    {
      "byteLength": 1933000,
      "uri": "scene.bin"
    }
  ],
  "images": [
    {
      "uri": "textures/Droideka_mat_baseColor.png"
    }
  ],
  "materials": [
    {
      "doubleSided": true,
      "name": "Droideka_mat",
      "pbrMetallicRoughness": {
        "baseColorTexture": {
          "index": 0
        },
        "metallicFactor": 0.3057191715751473,
        "roughnessFactor": 0.8827664829944898
      }
    },
    {
      "doubleSided": true,
      "name": "Metal",
      "pbrMetallicRoughness": {
        "baseColorFactor": [
          0.035218,
          0.035218,
          0.035218,
          1.0
        ],
        "metallicFactor": 0.0,
        "roughnessFactor": 0.9177405468528221
      }
    },
    {
      "doubleSided": true,
      "emissiveFactor": [
        1.0,
        0.05097615027984815,
        0.05097615027984815
      ],
      "name": "Red_mat",
      "pbrMetallicRoughness": {
        "baseColorFactor": [
          1.0,
          0.027606939338488436,
          0.027606939338488436,
          1.0
        ],
        "metallicFactor": 0.0,
        "roughnessFactor": 0.7125213756412692
      }
    }
  ],
  "meshes": [
    {
      "name": "Object_0",
      "primitives": [
        {
          "attributes": {
            "NORMAL": 1,
            "POSITION": 0,
            "TEXCOORD_0": 2
          },
          "indices": 3,
          "material": 0,
          "mode": 4
        }
      ]
    },
    {
      "name": "Object_1",
      "primitives": [
        {
          "attributes": {
            "POSITION": 4
          },
          "indices": 5,
          "material": 1,
          "mode": 1
        }
      ]
    },
    {
      "name": "Object_2",
      "primitives": [
        {
          "attributes": {
            "NORMAL": 7,
            "POSITION": 6,
            "TEXCOORD_0": 8
          },
          "indices": 9,
          "material": 1,
          "mode": 4
        }
      ]
    },
    {
      "name": "Object_3",
      "primitives": [
        {
          "attributes": {
            "NORMAL": 11,
            "POSITION": 10,
            "TEXCOORD_0": 12
          },
          "indices": 13,
          "material": 2,
          "mode": 4
        }
      ]
    }
  ],
  "nodes": [
    {
      "children": [
        1
      ],
      "matrix": [
        0.8006938695907593,
        0.0,
        0.0,
        0.0,
        0.0,
        1.7778975393917468e-16,
        -0.8006938695907593,
        0.0,
        0.0,
        0.8006938695907593,
        1.7778975393917468e-16,
        0.0,
        0.0,
        0.0,
        0.0,
        1.0
      ],
      "name": "Sketchfab_model"
    },
    {
      "children": [
        2,
        3,
        4,
        5
      ],
      "name": "Droideka.obj.cleaner.materialmerger.gles"
    },
    {
      "mesh": 0,
      "name": "Object_2"
    },
    {
      "mesh": 1,
      "name": "Object_3"
    },
    {
      "mesh": 2,
      "name": "Object_4"
    },
    {
      "mesh": 3,
      "name": "Object_5"
    }
  ],
  "samplers": [
    {
      "magFilter": 9729,
      "minFilter": 9987,
      "wrapS": 10497,
      "wrapT": 10497
    }
  ],
  "scene": 0,
  "scenes": [
    {
      "name": "Sketchfab_Scene",
      "nodes": [
        0
      ]
    }
  ],
  "textures": [
    {
      "sampler": 0,
      "source": 0
    }
  ]
}
