{
  "accessors": [
    {
      "bufferView": 2,
      "componentType": 5126,
      "count": 30,
      "max": [
        0.029530899599194527,
        0.71194702386856079,
        0.36351498961448669
      ],
      "min": [
        -0.029530899599194527,
        0.68281298875808716,
        0.31351000070571899
      ],
      "type": "VEC3"
    },
    {
      "bufferView": 2,
      "byteOffset": 360,
      "componentType": 5126,
      "count": 30,
      "max": [
        0.96309775114059448,
        0.87133240699768066,
        0.75924187898635864
      ],
      "min": [
        -0.96309775114059448,
        -0.87133240699768066,
        -3.1947092082873496e-08
      ],
      "type": "VEC3"
    },
    {
      "bufferView": 3,
      "componentType": 5126,
      "count": 30,
      "max": [
        0.90285336971282959,
        0.96309781074523926,
        0.92957037687301636,
        1
      ],
      "min": [
        -0.87133240699768066,
        -0.96309781074523926,
        -0.92961782217025757,
        1
      ],
      "type": "VEC4"
    },
    {
      "bufferView": 1,
      "componentType": 5126,
      "count": 30,
      "max": [
        1.6692999601364136,
        0.97612297534942627
      ],
      "min": [
        1.6089500188827515,
        0.94188600778579712
      ],
      "type": "VEC2"
    },
    {
      "bufferView": 0,
      "componentType": 5125,
      "count": 90,
      "max": [
        29
      ],
      "min": [
        0
      ],
      "type": "SCALAR"
    },
    {
      "bufferView": 2,
      "byteOffset": 720,
      "componentType": 5126,
      "count": 63,
      "max": [
        0.08566659688949585,
        1,
        -0.13722200691699982
      ],
      "min": [
        0.054571401327848434,
        0.88007402420043945,
        -0.16831700503826141
      ],
      "type": "VEC3"
    },
    {
      "bufferView": 2,
      "byteOffset": 1476,
      "componentType": 5126,
      "count": 63,
      "max": [
        1,
        1,
        1
      ],
      "min": [
        -1,
        -1.5009300113888457e-07,
        -1
      ],
      "type": "VEC3"
    },
    {
      "bufferView": 3,
      "byteOffset": 480,
      "componentType": 5126,
      "count": 63,
      "max": [
        1,
        0.95123809576034546,
        1,
        1
      ],
      "min": [
        -1,
        -0.95390963554382324,
        -1,
        1
      ],
      "type": "VEC4"
    },
    {
      "bufferView": 1,
      "byteOffset": 240,
      "componentType": 5126,
      "count": 63,
      "max": [
        1.7120599746704102,
        0.97536200284957886
      ],
      "min": [
        1.671239972114563,
        0.90737199783325195
      ],
      "type": "VEC2"
    },
    {
      "bufferView": 0,
      "byteOffset": 360,
      "componentType": 5125,
      "count": 252,
      "max": [
        62
      ],
      "min": [
        0
      ],
      "type": "SCALAR"
    },
    {
      "bufferView": 2,
      "byteOffset": 2232,
      "componentType": 5126,
      "count": 63,
      "max": [
        0.18364700675010681,
        1,
        0.0085636898875236511
      ],
      "min": [
        0.15255199372768402,
        0.88007402420043945,
        -0.022531500086188316
      ],
      "type": "VEC3"
    },
    {
      "bufferView": 2,
      "byteOffset": 2988,
      "componentType": 5126,
      "count": 63,
      "max": [
        1,
        1,
        1
      ],
      "min": [
        -1,
        -1.5009300113888457e-07,
        -1
      ],
      "type": "VEC3"
    },
    {
      "bufferView": 3,
      "byteOffset": 1488,
      "componentType": 5126,
      "count": 63,
      "max": [
        1,
        0.95123970508575439,
        1,
        1
      ],
      "min": [
        -1,
        -0.95390999317169189,
        -1,
        1
      ],
      "type": "VEC4"
    },
    {
      "bufferView": 1,
      "byteOffset": 744,
      "componentType": 5126,
      "count": 63,
      "max": [
        1.7120599746704102,
        0.97536200284957886
      ],
      "min": [
        1.671239972114563,
        0.90737199783325195
      ],
      "type": "VEC2"
    },
    {
      "bufferView": 0,
      "byteOffset": 1368,
      "componentType": 5125,
      "count": 252,
      "max": [
        62
      ],
      "min": [
        0
      ],
      "type": "SCALAR"
    },
    {
      "bufferView": 2,
      "byteOffset": 3744,
      "componentType": 5126,
      "count": 63,
      "max": [
        0.17830300331115723,
        1,
        0.055508799850940704
      ],
      "min": [
        0.14720800518989563,
        0.88007402420043945,
        0.024413600564002991
      ],
      "type": "VEC3"
    },
    {
      "bufferView": 2,
      "byteOffset": 4500,
      "componentType": 5126,
      "count": 63,
      "max": [
        1,
        1,
        1
      ],
      "min": [
        -1,
        -1.5009300113888457e-07,
        -1
      ],
      "type": "VEC3"
    },
    {
      "bufferView": 3,
      "byteOffset": 2496,
      "componentType": 5126,
      "count": 63,
      "max": [
        1,
        0.95123940706253052,
        1,
        1
      ],
      "min": [
        -1,
        -0.95391005277633667,
        -1,
        1
      ],
      "type": "VEC4"
    },
    {
      "bufferView": 1,
      "byteOffset": 1248,
      "componentType": 5126,
      "count": 63,
      "max": [
        0.71205997467041016,
        0.97536200284957886
      ],
      "min": [
        0.67123901844024658,
        0.90737199783325195
      ],
      "type": "VEC2"
    },
    {
      "bufferView": 0,
      "byteOffset": 2376,
      "componentType": 5125,
      "count": 252,
      "max": [
        62
      ],
      "min": [
        0
      ],
      "type": "SCALAR"
    },
    {
      "bufferView": 2,
      "byteOffset": 5256,
      "componentType": 5126,
      "count": 30,
      "max": [
        0.029530899599194527,
        0.75836402177810669,
        0.34523299336433411
      ],
      "min": [
        -0.029530899599194527,
        0.72922998666763306,
        0.29522699117660522
      ],
      "type": "VEC3"
    },
    {
      "bufferView": 2,
      "byteOffset": 5616,
      "componentType": 5126,
      "count": 30,
      "max": [
        0.96309775114059448,
        0.87133240699768066,
        0.75924187898635864
      ],
      "min": [
        -0.96309775114059448,
        -0.87133240699768066,
        -3.1947092082873496e-08
      ],
      "type": "VEC3"
    },
    {
      "bufferView": 3,
      "byteOffset": 3504,
      "componentType": 5126,
      "count": 30,
      "max": [
        0.9028397798538208,
        0.96309781074523926,
        0.929576575756073,
        1
      ],
      "min": [
        -0.87133246660232544,
        -0.96309781074523926,
        -0.92961978912353516,
        1
      ],
      "type": "VEC4"
    },
    {
      "bufferView": 1,
      "byteOffset": 1752,
      "componentType": 5126,
      "count": 30,
      "max": [
        0.66930502653121948,
        0.97612297534942627
      ],
      "min": [
        0.60894697904586792,
        0.94188600778579712
      ],
      "type": "VEC2"
    },
    {
      "bufferView": 0,
      "byteOffset": 3384,
      "componentType": 5125,
      "count": 90,
      "max": [
        29
      ],
      "min": [
        0
      ],
      "type": "SCALAR"
    },
    {
      "bufferView": 2,
      "byteOffset": 5976,
      "componentType": 5126,
      "count": 639,
      "max": [
        0.42105299234390259,
        0.91621297597885132,
        0.42105299234390259
      ],
      "min": [
        -0.42105299234390259,
        0.48274001479148865,
        -0.42105299234390259
      ],
      "type": "VEC3"
    },
    {
      "bufferView": 2,
      "byteOffset": 13644,
      "componentType": 5126,
      "count": 639,
      "max": [
        0.99506551027297974,
        1,
        0.99967688322067261
      ],
      "min": [
        -0.99506551027297974,
        -1,
        -0.99506551027297974
      ],
      "type": "VEC3"
    },
    {
      "bufferView": 3,
      "byteOffset": 3984,
      "componentType": 5126,
      "count": 639,
      "max": [
        1,
        0.81378328800201416,
        1,
        1
      ],
      "min": [
        -0.99995231628417969,
        -0.81495833396911621,
        -1,
        1
      ],
      "type": "VEC4"
    },
    {
      "bufferView": 1,
      "byteOffset": 1992,
      "componentType": 5126,
      "count": 639,
      "max": [
        0.96902698278427124,
        0.99479001760482788
      ],
      "min": [
        0.0051421402022242546,
        0.0034922200720757246
      ],
      "type": "VEC2"
    },
    {
      "bufferView": 0,
      "byteOffset": 3744,
      "componentType": 5125,
      "count": 3240,
      "max": [
        638
      ],
      "min": [
        0
      ],
      "type": "SCALAR"
    },
    {
      "bufferView": 2,
      "byteOffset": 21312,
      "componentType": 5126,
      "count": 486,
      "max": [
        0.69349497556686401,
        0.45616200566291809,
        0.69349497556686401
      ],
      "min": [
        -0.69349497556686401,
        -0.93082898855209351,
        -0.69349497556686401
      ],
      "type": "VEC3"
    },
    {
      "bufferView": 2,
      "byteOffset": 27144,
      "componentType": 5126,
      "count": 486,
      "max": [
        1,
        1,
        1
      ],
      "min": [
        -1,
        -1,
        -1
      ],
      "type": "VEC3"
    },
    {
      "bufferView": 3,
      "byteOffset": 14208,
      "componentType": 5126,
      "count": 486,
      "max": [
        1,
        0.64973711967468262,
        1,
        1
      ],
      "min": [
        -1,
        -0.64973706007003784,
        -1,
        1
      ],
      "type": "VEC4"
    },
    {
      "bufferView": 1,
      "byteOffset": 7104,
      "componentType": 5126,
      "count": 486,
      "max": [
        1.9974900484085083,
        0.74362999200820923
      ],
      "min": [
        0.6225469708442688,
        0.36868599057197571
      ],
      "type": "VEC2"
    },
    {
      "bufferView": 0,
      "byteOffset": 16704,
      "componentType": 5125,
      "count": 2304,
      "max": [
        485
      ],
      "min": [
        0
      ],
      "type": "SCALAR"
    },
    {
      "bufferView": 2,
      "byteOffset": 32976,
      "componentType": 5126,
      "count": 614,
      "max": [
        0.76266700029373169,
        0.52533400058746338,
        0.76266700029373169
      ],
      "min": [
        -0.76266700029373169,
        -1,
        -0.76266700029373169
      ],
      "type": "VEC3"
    },
    {
      "bufferView": 2,
      "byteOffset": 40344,
      "componentType": 5126,
      "count": 614,
      "max": [
        1,
        1,
        1
      ],
      "min": [
        -1,
        -1,
        -1
      ],
      "type": "VEC3"
    },
    {
      "bufferView": 3,
      "byteOffset": 21984,
      "componentType": 5126,
      "count": 614,
      "max": [
        0.99999988079071045,
        0.5326387882232666,
        0.99999982118606567,
        1
      ],
      "min": [
        -0.99999988079071045,
        -0.5326387882232666,
        -0.99999982118606567,
        1
      ],
      "type": "VEC4"
    },
    {
      "bufferView": 1,
      "byteOffset": 10992,
      "componentType": 5126,
      "count": 614,
      "max": [
        1.6717900037765503,
        0.88865399360656738
      ],
      "min": [
        0.00050000002374872565,
        0.21738199889659882
      ],
      "type": "VEC2"
    },
    {
      "bufferView": 0,
      "byteOffset": 25920,
      "componentType": 5125,
      "count": 3168,
      "max": [
        613
      ],
      "min": [
        0
      ],
      "type": "SCALAR"
    }
  ],
  "asset": {
    "extras": {
      "author": "pablosanco (https://sketchfab.com/pablosanco)",
      "license": "CC-BY-4.0 (http://creativecommons.org/licenses/by/4.0/)",
      "source": "https://sketchfab.com/3d-models/bb-9e-star-wars-abejorro-d589e71d16334782b57127312388da89",
      "title": "BB-9E Star Wars Abejorro"
    },
    "generator": "Sketchfab-4.86.2",
    "version": "2.0"
  },
  "bufferViews": [
    {
      "buffer": 0,
      "byteLength": 38592,
      "byteOffset": 0,
      "name": "floatBufferViews",
      "target": 34963
    },
    {
      "buffer": 0,
      "byteLength": 15904,
      "byteOffset": 38592,
      "byteStride": 8,
      "name": "floatBufferViews",
      "target": 34962
    },
    {
      "buffer": 0,
      "byteLength": 47712,
      "byteOffset": 54496,
      "byteStride": 12,
      "name": "floatBufferViews",
      "target": 34962
    },
    {
      "buffer": 0,
      "byteLength": 31808,
      "byteOffset": 102208,
      "byteStride": 16,
      "name": "floatBufferViews",
      "target": 34962
    }
  ],
  "buffers": [
    {
      "byteLength": 134016,
      "uri": "scene.bin"
    }
  ],
  "images": [
    {
      "uri": "textures/Droid_metallicRoughness.png"
    },
    {
      "uri": "textures/Droid_baseColor.png"
    },
    {
      "uri": "textures/Droid_emissive.jpeg"
    },
    {
      "uri": "textures/Droid_normal.png"
    }
  ],
  "materials": [
    {
      "alphaMode": "BLEND",
      "doubleSided": true,
      "emissiveFactor": [
        1,
        1,
        1
      ],
      "emissiveTexture": {
        "index": 2,
        "texCoord": 0
      },
      "name": "Droid",
      "normalTexture": {
        "index": 3,
        "scale": 1,
        "texCoord": 0
      },
      "occlusionTexture": {
        "index": 0,
        "strength": 1,
        "texCoord": 0
      },
      "pbrMetallicRoughness": {
        "baseColorFactor": [
          1,
          1,
          1,
          1
        ],
        "baseColorTexture": {
          "index": 1,
          "texCoord": 0
        },
        "metallicFactor": 1,
        "metallicRoughnessTexture": {
          "index": 0,
          "texCoord": 0
        },
        "roughnessFactor": 1
      }
    }
  ],
  "meshes": [
    {
      "name": "defaultMaterial",
      "primitives": [
        {
          "attributes": {
            "NORMAL": 1,
            "POSITION": 0,
            "TANGENT": 2,
            "TEXCOORD_0": 3
          },
          "indices": 4,
          "material": 0,
          "mode": 4
        }
      ]
    },
    {
      "name": "defaultMaterial",
      "primitives": [
        {
          "attributes": {
            "NORMAL": 6,
            "POSITION": 5,
            "TANGENT": 7,
            "TEXCOORD_0": 8
          },
          "indices": 9,
          "material": 0,
          "mode": 4
        }
      ]
    },
    {
      "name": "defaultMaterial",
      "primitives": [
        {
          "attributes": {
            "NORMAL": 11,
            "POSITION": 10,
            "TANGENT": 12,
            "TEXCOORD_0": 13
          },
          "indices": 14,
          "material": 0,
          "mode": 4
        }
      ]
    },
    {
      "name": "defaultMaterial",
      "primitives": [
        {
          "attributes": {
            "NORMAL": 16,
            "POSITION": 15,
            "TANGENT": 17,
            "TEXCOORD_0": 18
          },
          "indices": 19,
          "material": 0,
          "mode": 4
        }
      ]
    },
    {
      "name": "defaultMaterial",
      "primitives": [
        {
          "attributes": {
            "NORMAL": 21,
            "POSITION": 20,
            "TANGENT": 22,
            "TEXCOORD_0": 23
          },
          "indices": 24,
          "material": 0,
          "mode": 4
        }
      ]
    },
    {
      "name": "defaultMaterial",
      "primitives": [
        {
          "attributes": {
            "NORMAL": 26,
            "POSITION": 25,
            "TANGENT": 27,
            "TEXCOORD_0": 28
          },
          "indices": 29,
          "material": 0,
          "mode": 4
        }
      ]
    },
    {
      "name": "defaultMaterial",
      "primitives": [
        {
          "attributes": {
            "NORMAL": 31,
            "POSITION": 30,
            "TANGENT": 32,
            "TEXCOORD_0": 33
          },
          "indices": 34,
          "material": 0,
          "mode": 4
        }
      ]
    },
    {
      "name": "defaultMaterial",
      "primitives": [
        {
          "attributes": {
            "NORMAL": 36,
            "POSITION": 35,
            "TANGENT": 37,
            "TEXCOORD_0": 38
          },
          "indices": 39,
          "material": 0,
          "mode": 4
        }
      ]
    }
  ],
  "nodes": [
    {
      "children": [
        1
      ],
      "name": "RootNode (gltf orientation matrix)",
      "rotation": [
        -0.70710678118654746,
        -0,
        -0,
        0.70710678118654757
      ]
    },
    {
      "children": [
        2
      ],
      "name": "RootNode (model correction matrix)"
    },
    {
      "children": [
        3,
        5,
        7,
        9,
        11,
        13,
        15,
        17
      ],
      "matrix": [
        1,
        0,
        0,
        0,
        0,
        -4.3711390063094768e-08,
        0.999999999999999,
        0,
        0,
        -0.999999999999999,
        -4.3711390063094768e-08,
        0,
        0,
        0,
        0,
        1
      ],
      "name": "Collada visual scene group"
    },
    {
      "children": [
        4
      ],
      "name": "luz"
    },
    {
      "mesh": 0,
      "name": "defaultMaterial"
    },
    {
      "children": [
        6
      ],
      "name": "antena"
    },
    {
      "mesh": 1,
      "name": "defaultMaterial"
    },
    {
      "children": [
        8
      ],
      "name": "antena"
    },
    {
      "mesh": 2,
      "name": "defaultMaterial"
    },
    {
      "children": [
        10
      ],
      "name": "antena_LP"
    },
    {
      "mesh": 3,
      "name": "defaultMaterial"
    },
    {
      "children": [
        12
      ],
      "name": "luz_LP"
    },
    {
      "mesh": 4,
      "name": "defaultMaterial"
    },
    {
      "children": [
        14
      ],
      "name": "cabeza_LP"
    },
    {
      "mesh": 5,
      "name": "defaultMaterial"
    },
    {
      "children": [
        16
      ],
      "name": "esfera_LP"
    },
    {
      "mesh": 6,
      "name": "defaultMaterial"
    },
    {
      "children": [
        18
      ],
      "name": "cuerpo_LP"
    },
    {
      "mesh": 7,
      "name": "defaultMaterial"
    }
  ],
  "samplers": [
    {
      "magFilter": 9729,
      "minFilter": 9987,
      "wrapS": 10497,
      "wrapT": 10497
    }
  ],
  "scene": 0,
  "scenes": [
    {
      "name": "OSG_Scene",
      "nodes": [
        0
      ]
    }
  ],
  "textures": [
    {
      "sampler": 0,
      "source": 0
    },
    {
      "sampler": 0,
      "source": 1
    },
    {
      "sampler": 0,
      "source": 2
    },
    {
      "sampler": 0,
      "source": 3
    }
  ]
}

